<svg viewBox="0 0 32 32" fill="none" xmlns="http://www.w3.org/2000/svg"><path fill-rule="evenodd" clip-rule="evenodd" d="M17.5453 3.88806L14.9773 4.57617L10.2999 5.82948L6.90522 6.73907L3.45152 7.66449C3.09982 7.75873 2.79525 7.94107 2.5552 8.18141L2.55519 8.1814C2.06701 8.67015 1.84565 9.39875 2.03729 10.114L2.26696 10.9711C1.80096 11.5175 1.51965 12.2261 1.51965 13.0005C1.51965 13.9677 1.95846 14.8323 2.64784 15.4063V26.7529C2.64784 27.8574 3.54327 28.7529 4.64784 28.7529H27.4156C28.5202 28.7529 29.4156 27.8574 29.4156 26.7529V14.5989C29.4156 13.4944 28.5202 12.5989 27.4156 12.5989H7.75199C7.73072 12.4329 7.69645 12.271 7.65022 12.1142L8.8228 11.8L13.5002 10.5467L16.8949 9.63711L21.5723 8.3838L24.1403 7.69569L26.8372 6.97308C27.9041 6.6872 28.5373 5.59052 28.2514 4.52359L27.893 3.18598L27.8861 3.16105C27.8821 3.14682 27.878 3.13267 27.8737 3.11861C27.8655 3.09173 27.8567 3.06514 27.8475 3.03885C27.5043 2.06171 26.4604 1.4993 25.4435 1.77176L25.4435 1.77176L22.2228 2.63475L17.5453 3.88806ZM6.09716 10.2264C6.17396 10.2665 6.2489 10.3098 6.32179 10.3561L7.59807 11.0929L12.2755 9.8396L8.12997 7.44618L3.71034 8.63042C3.63101 8.65168 3.55648 8.6819 3.48754 8.7197L6.09716 10.2264ZM16.202 5.28328L11.5246 6.53659L15.6701 8.93001L20.3475 7.6767L16.202 5.28328ZM22.9156 6.98859L18.7701 4.59517L23.4475 3.34186L27.2029 5.51001C27.0772 5.74658 26.8575 5.93236 26.5784 6.00716L22.9156 6.98859ZM4.64859 14.5471C5.50272 14.5471 6.19513 13.8546 6.19513 13.0005C6.19513 12.1464 5.50272 11.454 4.64859 11.454C3.79445 11.454 3.10204 12.1464 3.10204 13.0005C3.10204 13.8546 3.79445 14.5471 4.64859 14.5471Z" fill="#70b8f5"/></svg>
