<svg viewBox="8 8 84 84" fill="none" xmlns="http://www.w3.org/2000/svg">
      <path d="M35.8578 14.1421C43.6683 6.33162 56.3316 6.33162 64.1421 14.1421L85.8579 35.8579C93.6683 43.6683 93.6684 56.3316 85.8579 64.1421L64.1421 85.8579C56.3316 93.6684 43.6683 93.6684 35.8578 85.8579L14.1421 64.1421C6.33159 56.3317 6.33159 43.6684 14.1421 35.8579L35.8578 14.1421Z" fill="#59C163"/>
      <path d="M71.1325 69.8907V69.8907C71.1325 75.098 64.8367 77.7058 61.1546 74.0237L52.8887 65.7577C49.2066 62.0757 42.9108 64.6835 42.9108 69.8907V69.8907C42.9108 75.098 49.2066 77.7058 52.8887 74.0237L61.1546 65.7577C64.8367 62.0757 71.1325 64.6835 71.1325 69.8907Z" stroke="white" stroke-width="5" stroke-linecap="round" stroke-linejoin="round"/>
      <path fill-rule="evenodd" clip-rule="evenodd" d="M55.3685 53.0203L59.5043 55.2703C61.2051 56.0925 62.1006 57.8096 62.0108 59.5174C60.4451 60.015 58.9413 60.9 57.6191 62.2222L57.1433 62.6981L56.8372 62.6352L56.4242 62.2222C53.3322 59.1302 49.2469 58.4287 45.7007 59.4829C44.6675 58.8022 43.7289 57.9272 42.7563 56.7752L33.3309 45.6103C31.1892 43.0734 31.4922 39.2845 34.0097 37.1201L51.0575 22.4636C52.1197 21.5504 53.6368 21.3917 54.8649 22.0653L59.3675 24.5348C61.1989 25.5393 61.6803 27.9534 60.3742 29.5834L52.3705 39.5722C51.6171 40.5124 51.3235 41.7402 51.5701 42.9196L53.0658 50.0735C53.3347 51.3597 54.1854 52.4484 55.3685 53.0203ZM43.4987 60.4026L43.2535 60.2483L29.9059 59.207L41.2539 62.0319C41.9319 61.3942 42.6882 60.8478 43.4987 60.4026ZM40.3676 55.5967L23.8046 46.0604L38.4436 58.1062H41.957L40.3676 55.5967Z" fill="white"/>
      </svg>