<svg viewBox="0 0 100 100" fill="none" xmlns="http://www.w3.org/2000/svg">
      <path d="M35.8579 14.1421C43.6684 6.33162 56.3317 6.33162 64.1422 14.1421L85.8579 35.8579C93.6684 43.6683 93.6684 56.3316 85.8579 64.1421L64.1422 85.8579C56.3317 93.6684 43.6684 93.6684 35.8579 85.8579L14.1421 64.1421C6.33166 56.3317 6.33165 43.6684 14.1421 35.8579L35.8579 14.1421Z" fill="#59C163"/>
      <path fill-rule="evenodd" clip-rule="evenodd" d="M50 71.0252C61.6119 71.0252 71.0252 61.6119 71.0252 50C71.0252 45.0949 69.3455 40.5821 66.53 37.0055L70.0857 33.4497C73.7963 37.9478 76.0252 43.7136 76.0252 50C76.0252 64.3733 64.3733 76.0252 50 76.0252C43.7136 76.0252 37.9478 73.7963 33.4497 70.0857L37.0055 66.5299C40.5822 69.3455 45.0949 71.0252 50 71.0252ZM39.6717 63.8638C39.9451 64.0675 40.2249 64.2634 40.5108 64.4511C42.9913 66.0799 45.8492 67.0428 48.8095 67.2471C51.7699 67.4515 54.733 66.8904 57.4137 65.6179C60.0944 64.3454 62.4024 62.4043 64.1157 59.9814L52.071 51.4644L39.6717 63.8638ZM50 49.9999L37.7754 62.2245C36.5238 60.9729 35.4669 59.5316 34.6468 57.9473C33.2827 55.312 32.6199 52.37 32.7221 49.4044C32.8244 46.4388 33.6882 43.5494 35.2306 41.0143C36.7729 38.4792 38.9418 36.3838 41.5285 34.9297C44.1152 33.4756 47.0326 32.7118 50 32.7118V49.9999ZM64.867 35.1329C61.0622 31.3281 55.8059 28.9748 50 28.9748C38.3881 28.9748 28.9749 38.3881 28.9749 50C28.9749 55.8059 31.3282 61.0622 35.1329 64.867L31.5974 68.4025C26.8878 63.6929 23.9749 57.1866 23.9749 50C23.9749 35.6267 35.6267 23.9748 50 23.9748C57.1867 23.9748 63.6929 26.8878 68.4026 31.5974L64.867 35.1329Z" fill="white"/>
      <rect x="22.7427" y="66.9414" width="62.5062" height="7.29441" rx="3.64721" transform="rotate(-45 22.7427 66.9414)" fill="white"/>
      </svg>