<svg viewBox="0 0 100 100" fill="none" xmlns="http://www.w3.org/2000/svg">
      <path d="M35.8578 14.1421C43.6683 6.33162 56.3316 6.33162 64.1421 14.1421L85.8579 35.8579C93.6683 43.6683 93.6684 56.3316 85.8579 64.1421L64.1421 85.8579C56.3316 93.6684 43.6683 93.6684 35.8578 85.8579L14.1421 64.1421C6.33159 56.3317 6.33159 43.6684 14.1421 35.8579L35.8578 14.1421Z" fill="#59C163"/>
      <path d="M48.5 27.7164C49.4282 27.1805 50.5718 27.1805 51.5 27.7164L68.5481 37.5592C69.4763 38.0951 70.0481 39.0854 70.0481 40.1572V59.8428C70.0481 60.9146 69.4763 61.9049 68.5481 62.4408L51.5 72.2836C50.5718 72.8195 49.4282 72.8195 48.5 72.2836L31.4518 62.4408C30.5236 61.9049 29.9518 60.9146 29.9518 59.8428V40.1572C29.9518 39.0854 30.5236 38.0951 31.4518 37.5592L48.5 27.7164Z" stroke="white" stroke-width="6"/>
      <path d="M69.3452 38.9L50 49.7442M50 72.4069L50 49.7442M30.6547 38.9L50 49.7442" stroke="white" stroke-width="6"/>
      </svg>